<svg width="51" height="50" viewBox="0 0 51 50" fill="none" xmlns="http://www.w3.org/2000/svg">
<path d="M16.1324 33.5144V19.9398H12.9315V16.4612H20.5492V33.5144H16.1324Z" fill="url(#paint0_linear)"/>
<path d="M37.1482 20.8642C37.1482 22.3481 36.3294 23.6617 34.9646 24.3917C36.8751 25.1699 38.0663 26.8 38.0663 28.6974C38.0663 31.7625 35.2871 33.7087 30.9448 33.7087C26.6024 33.7087 23.8233 31.7868 23.8233 28.7705C23.8233 26.8243 25.1136 25.1699 27.1235 24.3917C25.6595 23.5887 24.7166 22.2266 24.7166 20.7427C24.7166 18.0179 27.1484 16.2909 30.92 16.2909C34.7412 16.2909 37.1482 18.0667 37.1482 20.8642ZM27.9919 28.3327C27.9919 29.768 29.0342 30.5708 30.9448 30.5708C32.8554 30.5708 33.9223 29.7925 33.9223 28.3327C33.9223 26.9219 32.8554 26.1188 30.9448 26.1188C29.034 26.1188 27.9919 26.9217 27.9919 28.3327ZM28.4387 21.1075C28.4387 22.3241 29.332 23.0049 30.9448 23.0049C32.5576 23.0049 33.4509 22.3239 33.4509 21.1075C33.4509 19.8428 32.5576 19.1372 30.9448 19.1372C29.3318 19.1372 28.4387 19.8428 28.4387 21.1075Z" fill="url(#paint1_linear)"/>
<path d="M45.4174 18.3863C46.1517 20.5111 46.5242 22.7334 46.5242 25C46.5242 36.3652 37.0928 45.6116 25.5001 45.6116C13.9073 45.6116 4.47578 36.3652 4.47578 25C4.47578 13.6345 13.9072 4.38844 25.4999 4.38844C27.8122 4.38844 30.079 4.75333 32.2459 5.47354V0.886689C30.0571 0.298452 27.7965 0 25.5001 0C11.4394 0 0 11.215 0 25C0 38.785 11.4394 50 25.5001 50C39.5608 50 51 38.785 51 25C51 22.7488 50.6957 20.5323 50.0957 18.3863H45.4174Z" fill="url(#paint2_linear)"/>
<path d="M44.1439 6.70655V1.91292H40.6279V6.70655H35.7677V10.1533H40.6279V14.9467H44.1439V10.1533H49.0332V6.70655H44.1439Z" fill="url(#paint3_linear)"/>
<defs>
<linearGradient id="paint0_linear" x1="0" y1="25" x2="26.7007" y2="50.4717" gradientUnits="userSpaceOnUse">
<stop stop-color="#3B8EDC"/>
<stop offset="1" stop-color="#0F58AE"/>
</linearGradient>
<linearGradient id="paint1_linear" x1="0" y1="25" x2="26.7007" y2="50.4717" gradientUnits="userSpaceOnUse">
<stop stop-color="#3B8EDC"/>
<stop offset="1" stop-color="#0F58AE"/>
</linearGradient>
<linearGradient id="paint2_linear" x1="0" y1="25" x2="26.7007" y2="50.4717" gradientUnits="userSpaceOnUse">
<stop stop-color="#3B8EDC"/>
<stop offset="1" stop-color="#0F58AE"/>
</linearGradient>
<linearGradient id="paint3_linear" x1="0" y1="25" x2="26.7007" y2="50.4717" gradientUnits="userSpaceOnUse">
<stop stop-color="#3B8EDC"/>
<stop offset="1" stop-color="#0F58AE"/>
</linearGradient>
</defs>
</svg>
