<svg width="32" height="26" viewBox="0 0 32 26" fill="none" xmlns="http://www.w3.org/2000/svg">
<path d="M27.6644 16.6611C27.5101 15.5773 26.6822 14.7323 25.6164 14.4804C21.4737 13.4989 20.4352 11.0874 20.26 8.41263C19.5254 8.2745 18.2184 8.125 16 8.125C13.7816 8.125 12.4746 8.2745 11.74 8.41263C11.5648 11.0874 10.5263 13.4989 6.38364 14.4804C5.31783 14.7339 4.48994 15.5773 4.33562 16.6611L3.53666 22.2544C3.25534 24.2239 4.68606 26 6.67621 26H25.3238C27.3123 26 28.7447 24.2239 28.4634 22.2544L27.6644 16.6611ZM16 21.9245C13.7575 21.9245 11.9393 20.1045 11.9393 17.862C11.9393 15.6195 13.7575 13.7995 16 13.7995C18.2425 13.7995 20.0607 15.6195 20.0607 17.862C20.0607 20.1045 18.2409 21.9245 16 21.9245ZM31.9951 6.5C31.9566 4.0625 25.8189 0.001625 16 0C6.17948 0.001625 0.0418471 4.0625 0.00487343 6.5C-0.0321003 8.9375 0.0386321 12.1095 4.08002 11.5814C8.80783 10.9622 8.51686 9.29338 8.51686 6.90788C8.51686 5.24388 12.3621 4.8425 16 4.8425C19.6379 4.8425 23.4816 5.24388 23.4832 6.90788C23.4832 9.29338 23.1922 10.9622 27.92 11.5814C31.9598 12.1095 32.0321 8.9375 31.9951 6.5Z" fill="url(#paint0_linear)"/>
<defs>
<linearGradient id="paint0_linear" x1="0" y1="13" x2="13.7633" y2="28.8429" gradientUnits="userSpaceOnUse">
<stop stop-color="#3B8EDC"/>
<stop offset="1" stop-color="#0F58AE"/>
</linearGradient>
</defs>
</svg>
