<svg width="51" height="50" viewBox="0 0 51 50" fill="none" xmlns="http://www.w3.org/2000/svg">
<path d="M25.5498 38.722C28.3004 38.722 30.5303 36.536 30.5303 33.8394C30.5303 31.1428 28.3004 28.9568 25.5498 28.9568C22.7992 28.9568 20.5693 31.1428 20.5693 33.8394C20.5693 36.536 22.7992 38.722 25.5498 38.722Z" fill="url(#paint0_linear)"/>
<path d="M49.5059 0H1.49414C0.668977 0 0 0.655762 0 1.46475V36.6192C0 37.4282 0.668977 38.084 1.49414 38.084H18.8652C15.4401 32.9179 19.2396 26.0271 25.5498 26.0271C31.8601 26.0271 35.6596 32.9178 32.2344 38.084H49.5059C50.331 38.084 51 37.4282 51 36.6192V1.46475C51 0.655762 50.331 0 49.5059 0ZM19.5234 5.95674H31.4766C32.3017 5.95674 32.9707 6.6125 32.9707 7.42148C32.9707 8.23047 32.3017 8.88623 31.4766 8.88623H19.5234C18.6983 8.88623 18.0293 8.23047 18.0293 7.42148C18.0293 6.6125 18.6983 5.95674 19.5234 5.95674ZM40.4414 23.534H10.5586C9.73343 23.534 9.06445 22.8782 9.06445 22.0692C9.06445 21.2603 9.73343 20.6045 10.5586 20.6045H40.4414C41.2666 20.6045 41.9355 21.2603 41.9355 22.0692C41.9355 22.8782 41.2666 23.534 40.4414 23.534ZM40.4414 17.6749H10.5586C9.73343 17.6749 9.06445 17.0191 9.06445 16.2102C9.06445 15.4012 9.73343 14.7454 10.5586 14.7454H40.4414C41.2666 14.7454 41.9355 15.4012 41.9355 16.2102C41.9355 17.0191 41.2666 17.6749 40.4414 17.6749Z" fill="url(#paint1_linear)"/>
<path d="M19.5981 39.0264V48.5328C19.5981 49.6942 20.921 50.4015 21.9178 49.7536L25.5997 47.3606L29.2816 49.7536C30.2632 50.3917 31.6013 49.7079 31.6013 48.5328V38.9137C28.4535 42.5162 22.8181 42.5734 19.5981 39.0264Z" fill="url(#paint2_linear)"/>
<defs>
<linearGradient id="paint0_linear" x1="0" y1="25" x2="26.7007" y2="50.4717" gradientUnits="userSpaceOnUse">
<stop stop-color="#3B8EDC"/>
<stop offset="1" stop-color="#0F58AE"/>
</linearGradient>
<linearGradient id="paint1_linear" x1="0" y1="25" x2="26.7007" y2="50.4717" gradientUnits="userSpaceOnUse">
<stop stop-color="#3B8EDC"/>
<stop offset="1" stop-color="#0F58AE"/>
</linearGradient>
<linearGradient id="paint2_linear" x1="0" y1="25" x2="26.7007" y2="50.4717" gradientUnits="userSpaceOnUse">
<stop stop-color="#3B8EDC"/>
<stop offset="1" stop-color="#0F58AE"/>
</linearGradient>
</defs>
</svg>
