<svg width="79" height="60" viewBox="0 0 79 60" fill="none" xmlns="http://www.w3.org/2000/svg">
<path d="M39.4985 48.7802C51.7278 48.7802 61.6416 44.605 61.6416 39.4547C61.6416 34.3044 51.7278 30.1293 39.4985 30.1293C27.2693 30.1293 17.3555 34.3044 17.3555 39.4547C17.3555 44.605 27.2693 48.7802 39.4985 48.7802Z" fill="url(#paint0_linear)"/>
<path d="M17.3555 19.2495H61.6415L61.6416 39.4547H17.3555L17.3555 19.2495Z" fill="url(#paint1_linear)"/>
<g filter="url(#filter0_d)">
<path d="M38.1701 0.909762L4.95555 16.2967C3.77458 16.9184 3.77458 18.6281 4.95555 19.2498L38.1701 34.6367C39.0558 34.9476 39.9415 34.9476 40.8272 34.6367L74.0418 19.2498C75.2227 18.6281 75.2227 16.9184 74.0418 16.2967L40.8272 0.909762C39.9415 0.443491 39.0558 0.443491 38.1701 0.909762Z" fill="url(#paint2_linear)"/>
</g>
<path d="M67.8417 19.8714L38.3177 14.587C37.5796 14.4315 36.6938 15.0532 36.5462 15.8304C36.3986 16.6075 36.9891 17.54 37.7272 17.6954L66.0702 22.669V45.6717C66.0702 46.6043 66.6607 47.226 67.5464 47.226C68.4322 47.226 69.0226 46.6043 69.0226 45.6717V21.4256C69.0226 20.6485 68.4322 20.0268 67.8417 19.8714Z" fill="url(#paint3_linear)"/>
<path d="M67.5466 48.7802C69.1772 48.7802 70.499 47.3885 70.499 45.6717C70.499 43.9549 69.1772 42.5632 67.5466 42.5632C65.9161 42.5632 64.5942 43.9549 64.5942 45.6717C64.5942 47.3885 65.9161 48.7802 67.5466 48.7802Z" fill="url(#paint4_linear)"/>
<path d="M71.9749 50.3346C71.9749 52.9768 67.5463 59.66 67.5463 59.66C67.5463 59.66 63.1177 52.9768 63.1177 50.3346C63.1177 47.6924 65.0367 45.6719 67.5463 45.6719C70.0558 45.6719 71.9749 47.6924 71.9749 50.3346Z" fill="url(#paint5_linear)"/>
<defs>
<filter id="filter0_d" x="0.0698242" y="0.560059" width="78.8577" height="42.3098" filterUnits="userSpaceOnUse" color-interpolation-filters="sRGB">
<feFlood flood-opacity="0" result="BackgroundImageFix"/>
<feColorMatrix in="SourceAlpha" type="matrix" values="0 0 0 0 0 0 0 0 0 0 0 0 0 0 0 0 0 0 127 0"/>
<feOffset dy="4"/>
<feGaussianBlur stdDeviation="2"/>
<feColorMatrix type="matrix" values="0 0 0 0 0 0 0 0 0 0 0 0 0 0 0 0 0 0 0.07 0"/>
<feBlend mode="normal" in2="BackgroundImageFix" result="effect1_dropShadow"/>
<feBlend mode="normal" in="SourceGraphic" in2="effect1_dropShadow" result="shape"/>
</filter>
<linearGradient id="paint0_linear" x1="17.3555" y1="34.0148" x2="32.2804" y2="54.9484" gradientUnits="userSpaceOnUse">
<stop stop-color="#3B8EDC"/>
<stop offset="1" stop-color="#0F58AE"/>
</linearGradient>
<linearGradient id="paint1_linear" x1="17.3555" y1="34.0148" x2="32.2804" y2="54.9484" gradientUnits="userSpaceOnUse">
<stop stop-color="#3B8EDC"/>
<stop offset="1" stop-color="#0F58AE"/>
</linearGradient>
<linearGradient id="paint2_linear" x1="4.06982" y1="17.715" x2="19.0476" y2="46.6451" gradientUnits="userSpaceOnUse">
<stop stop-color="#3B8EDC"/>
<stop offset="1" stop-color="#0F58AE"/>
</linearGradient>
<linearGradient id="paint3_linear" x1="36.5234" y1="30.8945" x2="53.9402" y2="47.1021" gradientUnits="userSpaceOnUse">
<stop stop-color="#3B8EDC"/>
<stop offset="1" stop-color="#0F58AE"/>
</linearGradient>
<linearGradient id="paint4_linear" x1="64.5942" y1="45.6717" x2="67.8947" y2="48.6035" gradientUnits="userSpaceOnUse">
<stop stop-color="#3B8EDC"/>
<stop offset="1" stop-color="#0F58AE"/>
</linearGradient>
<linearGradient id="paint5_linear" x1="63.1177" y1="52.6659" x2="69.6751" y2="56.5493" gradientUnits="userSpaceOnUse">
<stop stop-color="#3B8EDC"/>
<stop offset="1" stop-color="#0F58AE"/>
</linearGradient>
</defs>
</svg>
