<svg width="26" height="24" viewBox="0 0 26 24" fill="none" xmlns="http://www.w3.org/2000/svg">
<path d="M22.75 22.4V4.8H17.875V0H3.25V22.4H0V24H11.375V19.2H14.625V24H26V22.4H22.75ZM9.75 16H6.5V12.8H9.75V16ZM9.75 11.2H6.5V8H9.75V11.2ZM9.75 6.4H6.5V3.2H9.75V6.4ZM14.625 16H11.375V12.8H14.625V16ZM14.625 11.2H11.375V8H14.625V11.2ZM14.625 6.4H11.375V3.2H14.625V6.4ZM21.125 16H17.875V12.8H21.125V16ZM21.125 11.2H17.875V8H21.125V11.2Z" fill="url(#paint0_linear)"/>
<defs>
<linearGradient id="paint0_linear" x1="0" y1="12" x2="12.8294" y2="24.9989" gradientUnits="userSpaceOnUse">
<stop stop-color="#3B8EDC"/>
<stop offset="1" stop-color="#0F58AE"/>
</linearGradient>
</defs>
</svg>
