<svg width="51" height="50" viewBox="0 0 51 50" fill="none" xmlns="http://www.w3.org/2000/svg">
<path d="M38.9473 48.4375C38.9473 46.0104 36.9404 44.043 34.4648 44.043H16.5352C14.0596 44.043 12.0527 46.0104 12.0527 48.4375V50H38.9473V48.4375Z" fill="url(#paint0_linear)"/>
<path d="M48.0117 11.8164V8.88672H29.7072C29.2558 7.6457 28.26 6.66943 26.9941 6.22686V0H24.0059V6.22686C22.74 6.66943 21.7442 7.6457 21.2928 8.88672H2.98828V11.8164H6.72403L0 27.9297C0 31.9681 3.35156 35.2539 7.4707 35.2539H10.459C14.5781 35.2539 17.9297 31.9681 17.9297 27.9297L11.1753 11.8164H21.2929C21.7443 13.0574 22.7401 14.0337 24.006 14.4763V35.4145C21.0859 36.0003 18.776 38.2494 18.1806 41.1133H32.8196C32.2242 38.2494 29.9143 36.0003 26.9942 35.4145V14.4763C28.2601 14.0337 29.2559 13.0574 29.7073 11.8164H39.7944L33.0703 27.9297C33.0703 31.9681 36.4219 35.2539 40.541 35.2539H43.5293C47.6484 35.2539 51 31.9681 51 27.9297L44.2456 11.8164H48.0117ZM14.1939 26.4648H3.73575L8.96484 14.1596L14.1939 26.4648ZM47.2643 26.4648H36.8061L42.0352 14.1596L47.2643 26.4648Z" fill="url(#paint1_linear)"/>
<defs>
<linearGradient id="paint0_linear" x1="0" y1="25" x2="26.7007" y2="50.4717" gradientUnits="userSpaceOnUse">
<stop stop-color="#3B8EDC"/>
<stop offset="1" stop-color="#0F58AE"/>
</linearGradient>
<linearGradient id="paint1_linear" x1="0" y1="25" x2="26.7007" y2="50.4717" gradientUnits="userSpaceOnUse">
<stop stop-color="#3B8EDC"/>
<stop offset="1" stop-color="#0F58AE"/>
</linearGradient>
</defs>
</svg>
