<svg width="29" height="24" viewBox="0 0 29 24" fill="none" xmlns="http://www.w3.org/2000/svg">
<path d="M27.9643 0H1.03571C0.761026 0 0.497588 0.114935 0.303354 0.31952C0.10912 0.524105 0 0.801582 0 1.09091V22.9091C0 23.1984 0.10912 23.4759 0.303354 23.6805C0.497588 23.8851 0.761026 24 1.03571 24H27.9643C28.239 24 28.5024 23.8851 28.6966 23.6805C28.8909 23.4759 29 23.1984 29 22.9091V1.09091C29 0.801582 28.8909 0.524105 28.6966 0.31952C28.5024 0.114935 28.239 0 27.9643 0ZM15.1357 13.952C14.9539 14.1009 14.7302 14.1817 14.5 14.1817C14.2698 14.1817 14.0461 14.1009 13.8643 13.952L3.72533 5.64614L4.99667 3.92386L14.5 11.7089L24.0033 3.92386L25.2747 5.64614L15.1357 13.952Z" fill="url(#paint0_linear)"/>
<defs>
<linearGradient id="paint0_linear" x1="0" y1="12" x2="12.7352" y2="26.3922" gradientUnits="userSpaceOnUse">
<stop stop-color="#3B8EDC"/>
<stop offset="1" stop-color="#0F58AE"/>
</linearGradient>
</defs>
</svg>
