<svg width="61" height="47" viewBox="0 0 61 47" fill="none" xmlns="http://www.w3.org/2000/svg">
<path d="M34.0278 0H26.1945C23.9751 0 22.2778 1.69722 22.2778 3.91667V7.83333H24.8889V3.91667C24.8889 3.13333 25.4112 2.61111 26.1945 2.61111H34.0278C34.8112 2.61111 35.3334 3.13333 35.3334 3.91667V7.83333H37.9445V3.91667C37.9445 1.69722 36.2473 0 34.0278 0Z" fill="#FCFCFC"/>
<path d="M51 46.9999H9.22222C6.35 46.9999 4 44.6499 4 41.7777V10.4444C4 7.57217 6.35 5.22217 9.22222 5.22217H51C53.8722 5.22217 56.2222 7.57217 56.2222 10.4444V41.7777C56.2222 44.6499 53.8722 46.9999 51 46.9999Z" fill="white"/>
<g filter="url(#filter0_d)">
<path d="M51 27.4166H9.22222C6.35 27.4166 4 25.0666 4 22.1944V10.4444C4 7.57217 6.35 5.22217 9.22222 5.22217H51C53.8722 5.22217 56.2222 7.57217 56.2222 10.4444V22.1944C56.2222 25.0666 53.8722 27.4166 51 27.4166Z" fill="white"/>
</g>
<path d="M32.7221 24.8057H27.4999C26.7166 24.8057 26.1943 24.2835 26.1943 23.5002V20.8891C26.1943 20.1057 26.7166 19.5835 27.4999 19.5835H32.7221C33.5054 19.5835 34.0277 20.1057 34.0277 20.8891V23.5002C34.0277 24.2835 33.5054 24.8057 32.7221 24.8057Z" fill="#2F80CF"/>
<defs>
<filter id="filter0_d" x="0" y="5.22217" width="60.2222" height="30.1944" filterUnits="userSpaceOnUse" color-interpolation-filters="sRGB">
<feFlood flood-opacity="0" result="BackgroundImageFix"/>
<feColorMatrix in="SourceAlpha" type="matrix" values="0 0 0 0 0 0 0 0 0 0 0 0 0 0 0 0 0 0 127 0"/>
<feOffset dy="4"/>
<feGaussianBlur stdDeviation="2"/>
<feColorMatrix type="matrix" values="0 0 0 0 0 0 0 0 0 0 0 0 0 0 0 0 0 0 0.07 0"/>
<feBlend mode="normal" in2="BackgroundImageFix" result="effect1_dropShadow"/>
<feBlend mode="normal" in="SourceGraphic" in2="effect1_dropShadow" result="shape"/>
</filter>
</defs>
</svg>
