<svg width="51" height="50" fill="none" xmlns="http://www.w3.org/2000/svg"><path d="M16.132 33.514V19.94h-3.2v-3.48h7.617v17.053h-4.417z" fill="url(#paint0_linear)"/><path d="M37.148 20.864c0 1.484-.819 2.798-2.183 3.528 1.91.778 3.101 2.408 3.101 4.305 0 3.066-2.779 5.012-7.121 5.012-4.343 0-7.122-1.922-7.122-4.939 0-1.946 1.29-3.6 3.3-4.378-1.463-.803-2.406-2.165-2.406-3.65 0-2.724 2.431-4.451 6.203-4.451 3.821 0 6.228 1.776 6.228 4.573zm-9.156 7.469c0 1.435 1.042 2.238 2.953 2.238 1.91 0 2.977-.779 2.977-2.238 0-1.411-1.067-2.214-2.977-2.214-1.911 0-2.953.803-2.953 2.214zm.447-7.225c0 1.216.893 1.897 2.506 1.897 1.613 0 2.506-.681 2.506-1.897 0-1.265-.893-1.97-2.506-1.97-1.613 0-2.506.705-2.506 1.97z" fill="url(#paint1_linear)"/><path d="M45.417 18.386A20.188 20.188 0 0146.524 25c0 11.365-9.431 20.612-21.024 20.612-11.593 0-21.024-9.247-21.024-20.612 0-11.366 9.431-20.612 21.024-20.612 2.312 0 4.579.365 6.746 1.086V.887A25.948 25.948 0 0025.5 0C11.44 0 0 11.215 0 25s11.44 25 25.5 25S51 38.785 51 25c0-2.251-.304-4.468-.904-6.614h-4.679z" fill="url(#paint2_linear)"/><path d="M44.144 6.707V1.913h-3.516v4.794h-4.86v3.446h4.86v4.794h3.516v-4.794h4.89V6.707h-4.89z" fill="url(#paint3_linear)"/><defs><linearGradient id="paint0_linear" x1="0" y1="25" x2="26.701" y2="50.472" gradientUnits="userSpaceOnUse"><stop stop-color="#3B8EDC"/><stop offset="1" stop-color="#0F58AE"/></linearGradient><linearGradient id="paint1_linear" x1="0" y1="25" x2="26.701" y2="50.472" gradientUnits="userSpaceOnUse"><stop stop-color="#3B8EDC"/><stop offset="1" stop-color="#0F58AE"/></linearGradient><linearGradient id="paint2_linear" x1="0" y1="25" x2="26.701" y2="50.472" gradientUnits="userSpaceOnUse"><stop stop-color="#3B8EDC"/><stop offset="1" stop-color="#0F58AE"/></linearGradient><linearGradient id="paint3_linear" x1="0" y1="25" x2="26.701" y2="50.472" gradientUnits="userSpaceOnUse"><stop stop-color="#3B8EDC"/><stop offset="1" stop-color="#0F58AE"/></linearGradient></defs></svg>