<svg width="11" height="11" fill="none" xmlns="http://www.w3.org/2000/svg"><path fill-rule="evenodd" clip-rule="evenodd" d="M9.625 1.375h-8.25a.688.688 0 00-.688.688v7.562a.687.687 0 00.688.688h8.25a.687.687 0 00.688-.688V2.062a.687.687 0 00-.688-.687zM1.375.687A1.375 1.375 0 000 2.063v7.563A1.375 1.375 0 001.375 11h8.25A1.375 1.375 0 0011 9.625V2.062A1.375 1.375 0 009.625.688h-8.25z" fill="url(#paint0_linear)"/><path fill-rule="evenodd" clip-rule="evenodd" d="M2.406 0a.344.344 0 01.344.344v.344a.344.344 0 01-.688 0V.344A.344.344 0 012.406 0zm6.188 0a.344.344 0 01.344.344v.344a.344.344 0 01-.688 0V.344A.344.344 0 018.594 0z" fill="url(#paint1_linear)"/><path d="M1.719 2.75a.344.344 0 01.343-.344h6.876a.344.344 0 01.343.344v.688a.344.344 0 01-.344.343H2.064a.344.344 0 01-.344-.344V2.75zm5.843 2.406a.344.344 0 01.344-.343h.688a.344.344 0 01.344.343v.688a.344.344 0 01-.344.343h-.688a.344.344 0 01-.343-.343v-.688zm-2.062 0a.344.344 0 01.344-.343h.687a.344.344 0 01.344.343v.688a.344.344 0 01-.344.343h-.687a.344.344 0 01-.344-.343v-.688zM2.062 7.22a.344.344 0 01.344-.344h.688a.344.344 0 01.344.344v.687a.344.344 0 01-.344.344h-.688a.344.344 0 01-.344-.344V7.22zm2.063 0a.344.344 0 01.344-.344h.687a.344.344 0 01.344.344v.687a.344.344 0 01-.344.344H4.47a.344.344 0 01-.344-.344V7.22z" fill="url(#paint2_linear)"/><defs><linearGradient id="paint0_linear" x1="0" y1="5.5" x2="5.868" y2="10.988" gradientUnits="userSpaceOnUse"><stop stop-color="#3B8EDC"/><stop offset="1" stop-color="#0F58AE"/></linearGradient><linearGradient id="paint1_linear" x1="0" y1="5.5" x2="5.868" y2="10.988" gradientUnits="userSpaceOnUse"><stop stop-color="#3B8EDC"/><stop offset="1" stop-color="#0F58AE"/></linearGradient><linearGradient id="paint2_linear" x1="0" y1="5.5" x2="5.868" y2="10.988" gradientUnits="userSpaceOnUse"><stop stop-color="#3B8EDC"/><stop offset="1" stop-color="#0F58AE"/></linearGradient></defs></svg>