<svg width="32" height="26" fill="none" xmlns="http://www.w3.org/2000/svg"><path d="M27.664 16.661c-.154-1.084-.982-1.929-2.048-2.18-4.142-.982-5.18-3.394-5.356-6.068-.735-.139-2.042-.288-4.26-.288s-3.525.15-4.26.288c-.175 2.674-1.214 5.086-5.356 6.067-1.066.254-1.894 1.097-2.048 2.181l-.8 5.593C3.257 24.224 4.687 26 6.677 26h18.648c1.988 0 3.42-1.776 3.14-3.746l-.8-5.593zM16 21.924a4.062 4.062 0 010-8.124 4.062 4.062 0 010 8.124zM31.995 6.5C31.957 4.062 25.82.002 16 0 6.18.002.042 4.063.005 6.5c-.037 2.438.034 5.61 4.075 5.081 4.728-.619 4.437-2.288 4.437-4.673 0-1.664 3.845-2.066 7.483-2.066 3.638 0 7.482.402 7.483 2.066 0 2.385-.29 4.054 4.437 4.673 4.04.529 4.112-2.643 4.075-5.081z" fill="url(#paint0_linear)"/><defs><linearGradient id="paint0_linear" x1="0" y1="13" x2="13.763" y2="28.843" gradientUnits="userSpaceOnUse"><stop stop-color="#3B8EDC"/><stop offset="1" stop-color="#0F58AE"/></linearGradient></defs></svg>