<svg width="51" height="50" fill="none" xmlns="http://www.w3.org/2000/svg"><path d="M25.55 38.722c2.75 0 4.98-2.186 4.98-4.883 0-2.696-2.23-4.882-4.98-4.882-2.75 0-4.98 2.186-4.98 4.882 0 2.697 2.23 4.883 4.98 4.883z" fill="url(#paint0_linear)"/><path d="M49.506 0H1.494C.67 0 0 .656 0 1.465v35.154c0 .81.669 1.465 1.494 1.465h17.371c-3.425-5.166.375-12.057 6.685-12.057s10.11 6.89 6.684 12.057h17.272c.825 0 1.494-.656 1.494-1.465V1.465C51 .655 50.331 0 49.506 0zM19.523 5.957h11.954c.825 0 1.494.655 1.494 1.464 0 .81-.67 1.465-1.494 1.465H19.523c-.825 0-1.494-.656-1.494-1.465s.67-1.464 1.494-1.464zm20.918 17.577H10.56c-.826 0-1.495-.656-1.495-1.465s.67-1.464 1.495-1.464h29.88c.826 0 1.494.655 1.494 1.464 0 .81-.668 1.465-1.494 1.465zm0-5.86H10.56c-.826 0-1.495-.655-1.495-1.464 0-.809.67-1.465 1.495-1.465h29.88c.826 0 1.494.656 1.494 1.465 0 .81-.668 1.465-1.494 1.465z" fill="url(#paint1_linear)"/><path d="M19.598 39.026v9.507c0 1.161 1.323 1.868 2.32 1.22l3.682-2.392 3.682 2.393c.981.638 2.32-.046 2.32-1.221v-9.62c-3.149 3.603-8.784 3.66-12.004.113z" fill="url(#paint2_linear)"/><defs><linearGradient id="paint0_linear" x1="0" y1="25" x2="26.701" y2="50.472" gradientUnits="userSpaceOnUse"><stop stop-color="#3B8EDC"/><stop offset="1" stop-color="#0F58AE"/></linearGradient><linearGradient id="paint1_linear" x1="0" y1="25" x2="26.701" y2="50.472" gradientUnits="userSpaceOnUse"><stop stop-color="#3B8EDC"/><stop offset="1" stop-color="#0F58AE"/></linearGradient><linearGradient id="paint2_linear" x1="0" y1="25" x2="26.701" y2="50.472" gradientUnits="userSpaceOnUse"><stop stop-color="#3B8EDC"/><stop offset="1" stop-color="#0F58AE"/></linearGradient></defs></svg>