<svg width="79" height="60" fill="none" xmlns="http://www.w3.org/2000/svg"><path d="M39.498 48.78c12.23 0 22.144-4.175 22.144-9.325 0-5.15-9.914-9.326-22.144-9.326-12.229 0-22.142 4.175-22.142 9.326 0 5.15 9.913 9.325 22.142 9.325z" fill="url(#paint0_linear)"/><path d="M17.355 19.25h44.287v20.205H17.355V19.25z" fill="url(#paint1_linear)"/><g filter="url(#filter0_d)"><path d="M38.17.91L4.956 16.297c-1.181.621-1.181 2.331 0 2.953L38.17 34.637c.886.31 1.771.31 2.657 0L74.042 19.25c1.18-.622 1.18-2.332 0-2.953L40.827.91c-.886-.467-1.771-.467-2.657 0z" fill="url(#paint2_linear)"/></g><path d="M67.842 19.871l-29.524-5.284c-.738-.155-1.624.466-1.772 1.243-.147.778.443 1.71 1.181 1.865L66.07 22.67v23.003c0 .932.59 1.554 1.476 1.554s1.477-.622 1.477-1.554V21.426c0-.777-.59-1.4-1.181-1.555z" fill="url(#paint3_linear)"/><path d="M67.547 48.78c1.63 0 2.952-1.392 2.952-3.108 0-1.717-1.322-3.109-2.952-3.109s-2.953 1.392-2.953 3.109 1.322 3.108 2.953 3.108z" fill="url(#paint4_linear)"/><path d="M71.975 50.335c0 2.642-4.429 9.325-4.429 9.325s-4.428-6.683-4.428-9.325c0-2.643 1.919-4.663 4.428-4.663 2.51 0 4.429 2.02 4.429 4.663z" fill="url(#paint5_linear)"/><defs><linearGradient id="paint0_linear" x1="17.355" y1="34.015" x2="32.28" y2="54.948" gradientUnits="userSpaceOnUse"><stop stop-color="#3B8EDC"/><stop offset="1" stop-color="#0F58AE"/></linearGradient><linearGradient id="paint1_linear" x1="17.355" y1="34.015" x2="32.28" y2="54.948" gradientUnits="userSpaceOnUse"><stop stop-color="#3B8EDC"/><stop offset="1" stop-color="#0F58AE"/></linearGradient><linearGradient id="paint2_linear" x1="4.07" y1="17.715" x2="19.048" y2="46.645" gradientUnits="userSpaceOnUse"><stop stop-color="#3B8EDC"/><stop offset="1" stop-color="#0F58AE"/></linearGradient><linearGradient id="paint3_linear" x1="36.523" y1="30.895" x2="53.94" y2="47.102" gradientUnits="userSpaceOnUse"><stop stop-color="#3B8EDC"/><stop offset="1" stop-color="#0F58AE"/></linearGradient><linearGradient id="paint4_linear" x1="64.594" y1="45.672" x2="67.895" y2="48.603" gradientUnits="userSpaceOnUse"><stop stop-color="#3B8EDC"/><stop offset="1" stop-color="#0F58AE"/></linearGradient><linearGradient id="paint5_linear" x1="63.118" y1="52.666" x2="69.675" y2="56.549" gradientUnits="userSpaceOnUse"><stop stop-color="#3B8EDC"/><stop offset="1" stop-color="#0F58AE"/></linearGradient><filter id="filter0_d" x=".07" y=".56" width="78.858" height="42.31" filterUnits="userSpaceOnUse" color-interpolation-filters="sRGB"><feFlood flood-opacity="0" result="BackgroundImageFix"/><feColorMatrix in="SourceAlpha" values="0 0 0 0 0 0 0 0 0 0 0 0 0 0 0 0 0 0 127 0"/><feOffset dy="4"/><feGaussianBlur stdDeviation="2"/><feColorMatrix values="0 0 0 0 0 0 0 0 0 0 0 0 0 0 0 0 0 0 0.07 0"/><feBlend in2="BackgroundImageFix" result="effect1_dropShadow"/><feBlend in="SourceGraphic" in2="effect1_dropShadow" result="shape"/></filter></defs></svg>