<svg width="26" height="24" fill="none" xmlns="http://www.w3.org/2000/svg"><path d="M22.75 22.4V4.8h-4.875V0H3.25v22.4H0V24h11.375v-4.8h3.25V24H26v-1.6h-3.25zm-13-6.4H6.5v-3.2h3.25V16zm0-4.8H6.5V8h3.25v3.2zm0-4.8H6.5V3.2h3.25v3.2zm4.875 9.6h-3.25v-3.2h3.25V16zm0-4.8h-3.25V8h3.25v3.2zm0-4.8h-3.25V3.2h3.25v3.2zm6.5 9.6h-3.25v-3.2h3.25V16zm0-4.8h-3.25V8h3.25v3.2z" fill="url(#paint0_linear)"/><defs><linearGradient id="paint0_linear" x1="0" y1="12" x2="12.829" y2="24.999" gradientUnits="userSpaceOnUse"><stop stop-color="#3B8EDC"/><stop offset="1" stop-color="#0F58AE"/></linearGradient></defs></svg>