<svg width="51" height="50" fill="none" xmlns="http://www.w3.org/2000/svg"><path d="M38.947 48.438c0-2.428-2.007-4.395-4.482-4.395h-17.93c-2.475 0-4.482 1.967-4.482 4.395V50h26.894v-1.563z" fill="url(#paint0_linear)"/><path d="M48.012 11.816v-2.93H29.707a4.433 4.433 0 00-2.713-2.66V0h-2.988v6.227a4.433 4.433 0 00-2.713 2.66H2.988v2.93h3.736L0 27.93c0 4.038 3.352 7.324 7.47 7.324h2.989c4.12 0 7.47-3.286 7.47-7.324l-6.754-16.114h10.118a4.434 4.434 0 002.713 2.66v20.938c-2.92.586-5.23 2.835-5.825 5.7H32.82c-.596-2.865-2.906-5.114-5.826-5.7V14.476a4.434 4.434 0 002.713-2.66h10.087L33.07 27.93c0 4.038 3.352 7.324 7.471 7.324h2.988c4.12 0 7.471-3.286 7.471-7.324l-6.754-16.114h3.766zM14.194 26.465H3.736L8.965 14.16l5.229 12.305zm33.07 0H36.806l5.23-12.305 5.228 12.305z" fill="url(#paint1_linear)"/><defs><linearGradient id="paint0_linear" x1="0" y1="25" x2="26.701" y2="50.472" gradientUnits="userSpaceOnUse"><stop stop-color="#3B8EDC"/><stop offset="1" stop-color="#0F58AE"/></linearGradient><linearGradient id="paint1_linear" x1="0" y1="25" x2="26.701" y2="50.472" gradientUnits="userSpaceOnUse"><stop stop-color="#3B8EDC"/><stop offset="1" stop-color="#0F58AE"/></linearGradient></defs></svg>