<svg width="29" height="24" fill="none" xmlns="http://www.w3.org/2000/svg"><path d="M27.964 0H1.036a1.01 1.01 0 00-.733.32A1.121 1.121 0 000 1.09v21.82c0 .288.11.566.303.77.195.205.458.32.733.32h26.928c.275 0 .538-.115.733-.32a1.12 1.12 0 00.303-.77V1.09c0-.288-.11-.566-.303-.77a1.01 1.01 0 00-.733-.32zM15.136 13.952c-.182.149-.406.23-.636.23-.23 0-.454-.081-.636-.23L3.725 5.646l1.272-1.722 9.503 7.785 9.503-7.785 1.272 1.722-10.14 8.306z" fill="url(#paint0_linear)"/><defs><linearGradient id="paint0_linear" x1="0" y1="12" x2="12.735" y2="26.392" gradientUnits="userSpaceOnUse"><stop stop-color="#3B8EDC"/><stop offset="1" stop-color="#0F58AE"/></linearGradient></defs></svg>